<svg width="24" height="24" viewBox="0 0 24 24" fill="none" xmlns="http://www.w3.org/2000/svg">
<mask id="mask0_20162_8386" style="mask-type:luminance" maskUnits="userSpaceOnUse" x="1" y="1" width="22" height="22">
<path d="M23 1H1V23H23V1Z" fill="white"/>
</mask>
<g mask="url(#mask0_20162_8386)">
<mask id="mask1_20162_8386" style="mask-type:luminance" maskUnits="userSpaceOnUse" x="1" y="1" width="22" height="22">
<path d="M23 1H1V23H23V1Z" fill="white"/>
</mask>
<g mask="url(#mask1_20162_8386)">
<path d="M1 12C1 10.4812 2.23122 9.25 3.75 9.25H4.66667V14.75H3.75C2.23122 14.75 1 13.5188 1 12Z" fill="url(#paint0_linear_20162_8386)"/>
<path d="M1 12C1 10.4812 2.23122 9.25 3.75 9.25H4.66667V14.75H3.75C2.23122 14.75 1 13.5188 1 12Z" fill="url(#paint1_radial_20162_8386)"/>
<path d="M4.66699 7.875C4.66699 6.35622 5.89821 5.125 7.41699 5.125H8.33366V14.75H4.66699V7.875Z" fill="url(#paint2_linear_20162_8386)"/>
<path d="M4.66699 7.875C4.66699 6.35622 5.89821 5.125 7.41699 5.125H8.33366V14.75H4.66699V7.875Z" fill="url(#paint3_linear_20162_8386)" fill-opacity="0.6"/>
<path d="M8.33301 3.75C8.33301 2.23122 9.56423 1 11.083 1H11.9997C13.6038 1 14.7497 1.35521 14.7497 1.35521V13.375C14.7497 14.1344 14.1341 14.75 13.3747 14.75H8.33301V3.75Z" fill="url(#paint4_linear_20162_8386)"/>
<path d="M8.33301 3.75C8.33301 2.23122 9.56423 1 11.083 1H11.9997C13.6038 1 14.7497 1.35521 14.7497 1.35521V13.375C14.7497 14.1344 14.1341 14.75 13.3747 14.75H8.33301V3.75Z" fill="url(#paint5_linear_20162_8386)" fill-opacity="0.5"/>
<path d="M12 2.37516C12 1.61579 12.618 0.991038 13.3714 1.08568C15.061 1.29798 16.6851 1.90106 18.1114 2.85412C19.9203 4.06279 21.33 5.78067 22.1626 7.7906C22.9951 9.80053 23.2131 12.0122 22.7888 14.1459C22.3643 16.2797 21.3166 18.24 19.7782 19.7784C18.2399 21.3167 16.2799 22.3644 14.1462 22.7889C12.0124 23.2133 9.80041 22.9953 7.79039 22.1627C5.78046 21.3302 4.06258 19.9201 2.85391 18.1112C1.64529 16.3023 1 14.1757 1 12.0002C1.00005 13.5189 2.23127 14.7502 3.75 14.7502H10.625C11.3844 14.7502 12 14.1345 12 13.3752V2.37516Z" fill="url(#paint6_radial_20162_8386)"/>
<path d="M12 2.37516C12 1.61579 12.618 0.991038 13.3714 1.08568C15.061 1.29798 16.6851 1.90106 18.1114 2.85412C19.9203 4.06279 21.33 5.78067 22.1626 7.7906C22.9951 9.80053 23.2131 12.0122 22.7888 14.1459C22.3643 16.2797 21.3166 18.24 19.7782 19.7784C18.2399 21.3167 16.2799 22.3644 14.1462 22.7889C12.0124 23.2133 9.80041 22.9953 7.79039 22.1627C5.78046 21.3302 4.06258 19.9201 2.85391 18.1112C1.64529 16.3023 1 14.1757 1 12.0002C1.00005 13.5189 2.23127 14.7502 3.75 14.7502H10.625C11.3844 14.7502 12 14.1345 12 13.3752V2.37516Z" fill="url(#paint7_radial_20162_8386)"/>
<path opacity="0.6" d="M23.0003 12C23.0003 10.4812 21.7691 9.25 20.2503 9.25H12.0003V13.375C12.0003 14.1344 11.3847 14.75 10.6253 14.75H10.167H20.2503C21.7691 14.75 23.0003 13.5188 23.0003 12Z" fill="url(#paint8_radial_20162_8386)"/>
</g>
</g>
<defs>
<linearGradient id="paint0_linear_20162_8386" x1="1.0523" y1="13.028" x2="4.64975" y2="13.3407" gradientUnits="userSpaceOnUse">
<stop stop-color="#1B44B1"/>
<stop offset="1" stop-color="#102784"/>
</linearGradient>
<radialGradient id="paint1_radial_20162_8386" cx="0" cy="0" r="1" gradientUnits="userSpaceOnUse" gradientTransform="translate(2.26042 9.25) rotate(90) scale(5.5 4.052)">
<stop offset="0.57876" stop-color="#102784" stop-opacity="0"/>
<stop offset="1" stop-color="#102784"/>
</radialGradient>
<linearGradient id="paint2_linear_20162_8386" x1="6.50033" y1="5.125" x2="6.50033" y2="14.75" gradientUnits="userSpaceOnUse">
<stop stop-color="#0094F0"/>
<stop offset="0.775536" stop-color="#2052CB"/>
<stop offset="1" stop-color="#163697"/>
</linearGradient>
<linearGradient id="paint3_linear_20162_8386" x1="6.50033" y1="11.3125" x2="8.33485" y2="11.2219" gradientUnits="userSpaceOnUse">
<stop stop-color="#0078D4" stop-opacity="0"/>
<stop offset="1" stop-color="#2052CB"/>
</linearGradient>
<linearGradient id="paint4_linear_20162_8386" x1="10.1663" y1="1" x2="10.1663" y2="14.75" gradientUnits="userSpaceOnUse">
<stop stop-color="#26CFE8"/>
<stop offset="0.409431" stop-color="#0FAFFF"/>
<stop offset="0.809746" stop-color="#367AF2"/>
<stop offset="1" stop-color="#2052CB"/>
</linearGradient>
<linearGradient id="paint5_linear_20162_8386" x1="10.37" y1="8.90625" x2="12.2034" y2="8.90625" gradientUnits="userSpaceOnUse">
<stop stop-color="#0094F0" stop-opacity="0"/>
<stop offset="1" stop-color="#2764E7"/>
</linearGradient>
<radialGradient id="paint6_radial_20162_8386" cx="0" cy="0" r="1" gradientUnits="userSpaceOnUse" gradientTransform="translate(15.509 4.19731) rotate(90) scale(20.4304 20.4304)">
<stop offset="0.062127" stop-color="#6FE8F5"/>
<stop offset="0.288121" stop-color="#3BD5FF"/>
<stop offset="0.68128" stop-color="#0094F0"/>
<stop offset="1" stop-color="#2052CB"/>
</radialGradient>
<radialGradient id="paint7_radial_20162_8386" cx="0" cy="0" r="1" gradientUnits="userSpaceOnUse" gradientTransform="translate(10.3958 15.6665) rotate(-90) scale(15.5833)">
<stop offset="0.542484" stop-color="#29C3FF" stop-opacity="0"/>
<stop offset="1" stop-color="#73EDD8"/>
</radialGradient>
<radialGradient id="paint8_radial_20162_8386" cx="0" cy="0" r="1" gradientUnits="userSpaceOnUse" gradientTransform="translate(11.542 14.75) scale(14.2083)">
<stop offset="0.459307" stop-color="#3BD5FF"/>
<stop offset="1" stop-color="#3BD5FF" stop-opacity="0"/>
</radialGradient>
</defs>
</svg>
